<svg width="250" height="54" viewBox="0 0 250 54" fill="none" xmlns="http://www.w3.org/2000/svg">
<path d="M78.2947 28.3192V27.6954C78.2947 26.1278 77.7585 24.9282 76.6868 24.0964C75.6472 23.2327 74.2829 22.8008 72.5937 22.8008C71.2944 22.8008 70.271 23.0247 69.5241 23.4726C68.8093 23.8885 68.1272 24.5283 67.4775 25.392C67.2826 25.648 67.0715 25.8239 66.844 25.9199C66.6168 26.0159 66.3081 26.0639 65.9182 26.0639H64.4565C64.0992 26.0639 63.7744 25.9359 63.4821 25.68C63.222 25.424 63.1086 25.1201 63.1408 24.7682C63.2385 23.8085 63.7093 22.8648 64.5539 21.9371C65.431 20.9773 66.5843 20.1936 68.0134 19.5857C69.4428 18.9779 70.9696 18.674 72.5937 18.674C75.6147 18.674 78.0508 19.5058 79.9024 21.1693C81.7865 22.8328 82.7287 25.1681 82.7287 28.1752V42.8109C82.7287 43.1628 82.5986 43.4669 82.3388 43.7227C82.0788 43.9784 81.7704 44.1065 81.413 44.1065H79.6101C79.2528 44.1065 78.9444 43.9784 78.6843 43.7227C78.4246 43.4669 78.2947 43.1628 78.2947 42.8109V40.8434C77.775 41.9952 76.6703 42.907 74.9812 43.5788C73.292 44.2507 71.6028 44.5864 69.9137 44.5864C68.257 44.5864 66.7792 44.2984 65.4796 43.7227C64.1804 43.1147 63.1734 42.299 62.4587 41.2753C61.7765 40.2516 61.4355 39.1001 61.4355 37.8203C61.4355 35.421 62.3452 33.5496 64.1643 32.2059C65.9833 30.8303 68.4033 29.9027 71.4243 29.4229L78.2947 28.3192ZM78.2947 32.1582L72.545 33.0697C70.4334 33.3896 68.7932 33.9176 67.6238 34.6533C66.4544 35.3571 65.8695 36.2528 65.8695 37.3407C65.8695 38.1403 66.243 38.8601 66.9903 39.5C67.7373 40.1396 68.8744 40.4596 70.4012 40.4596C72.74 40.4596 74.6402 39.8039 76.1019 38.4921C77.5636 37.1807 78.2947 35.469 78.2947 33.3577V32.1582Z" fill="white"/>
<path d="M94.2717 42.8108C94.2717 43.1627 94.1418 43.4669 93.8818 43.7226C93.622 43.9784 93.3133 44.1065 92.956 44.1065H91.1533C90.796 44.1065 90.4873 43.9784 90.2276 43.7226C89.9675 43.4669 89.8376 43.1627 89.8376 42.8108V11.3321C89.8376 10.9802 89.9675 10.6763 90.2276 10.4204C90.4873 10.1644 90.796 10.0365 91.1533 10.0365H92.956C93.3133 10.0365 93.622 10.1644 93.8818 10.4204C94.1418 10.6763 94.2717 10.9802 94.2717 11.3321V42.8108Z" fill="white"/>
<path d="M111.823 40.4596C115.071 40.4596 117.264 39.212 118.401 36.7166C118.628 36.237 118.856 35.9009 119.083 35.709C119.311 35.5171 119.619 35.421 120.009 35.421H121.471C121.828 35.421 122.137 35.549 122.397 35.8051C122.656 36.0289 122.786 36.3008 122.786 36.6208C122.786 37.7084 122.348 38.876 121.471 40.1238C120.594 41.3714 119.327 42.4271 117.67 43.2908C116.013 44.1545 114.064 44.5864 111.823 44.5864C109.517 44.5864 107.519 44.1065 105.83 43.1469C104.141 42.1871 102.841 40.8757 101.932 39.212C101.022 37.5165 100.519 35.629 100.421 33.5496C100.389 33.1658 100.373 32.4301 100.373 31.3422C100.373 30.5746 100.389 30.0307 100.421 29.7108C100.714 26.4477 101.834 23.7925 103.783 21.7451C105.732 19.6977 108.412 18.674 111.823 18.674C114.064 18.674 115.997 19.1059 117.621 19.9696C119.278 20.8014 120.529 21.8411 121.373 23.0887C122.25 24.3044 122.721 25.456 122.786 26.5437C122.819 26.8956 122.689 27.1995 122.397 27.4554C122.137 27.7114 121.828 27.8393 121.471 27.8393H120.009C119.619 27.8393 119.311 27.7434 119.083 27.5514C118.856 27.3595 118.628 27.0236 118.401 26.5437C117.264 24.0484 115.071 22.8008 111.823 22.8008C110.036 22.8008 108.477 23.3926 107.145 24.5763C105.814 25.7599 105.05 27.5514 104.855 29.9507C104.823 30.3026 104.807 30.8784 104.807 31.6783C104.807 32.414 104.823 32.9578 104.855 33.3097C105.083 35.709 105.846 37.5003 107.145 38.684C108.477 39.8677 110.036 40.4596 111.823 40.4596Z" fill="white"/>
<path d="M151.129 42.8108C151.129 43.1627 150.999 43.4669 150.74 43.7226C150.479 43.9784 150.171 44.1065 149.814 44.1065H148.011C147.653 44.1065 147.345 43.9784 147.085 43.7226C146.825 43.4669 146.695 43.1627 146.695 42.8108V30.1426C146.695 27.7433 146.094 25.9199 144.892 24.6722C143.691 23.4246 142.017 22.8008 139.874 22.8008C137.762 22.8008 136.089 23.4246 134.855 24.6722C133.653 25.9199 133.052 27.7433 133.052 30.1426V42.8108C133.052 43.1627 132.922 43.4669 132.662 43.7226C132.403 43.9784 132.094 44.1065 131.736 44.1065H129.934C129.576 44.1065 129.268 43.9784 129.008 43.7226C128.748 43.4669 128.618 43.1627 128.618 42.8108V11.3321C128.618 10.9802 128.748 10.6763 129.008 10.4204C129.268 10.1644 129.576 10.0365 129.934 10.0365H131.736C132.094 10.0365 132.403 10.1644 132.662 10.4204C132.922 10.6763 133.052 10.9802 133.052 11.3321V21.937C133.767 21.0093 134.741 20.2415 135.976 19.6337C137.243 18.9939 138.785 18.674 140.604 18.674C142.651 18.674 144.47 19.1058 146.062 19.9696C147.653 20.8333 148.888 22.081 149.765 23.7125C150.674 25.312 151.129 27.2155 151.129 29.4228V42.8108Z" fill="white"/>
<path d="M168.204 18.674C171.68 18.674 174.425 19.7617 176.439 21.9371C178.452 24.1124 179.459 27.0715 179.459 30.8145V32.1101C179.459 32.462 179.33 32.7659 179.07 33.0219C178.81 33.2777 178.501 33.4058 178.144 33.4058H161.382V33.6935C161.447 35.8051 162.097 37.4684 163.331 38.684C164.598 39.8677 166.222 40.4596 168.204 40.4596C169.828 40.4596 171.079 40.2516 171.956 39.8358C172.865 39.4201 173.677 38.8282 174.392 38.0603C174.652 37.8045 174.879 37.6284 175.074 37.5326C175.302 37.4365 175.594 37.3884 175.951 37.3884H177.413C177.803 37.3884 178.128 37.5165 178.387 37.7726C178.647 38.0283 178.761 38.3322 178.729 38.684C178.598 39.5478 178.111 40.4438 177.267 41.3714C176.455 42.2671 175.269 43.035 173.71 43.6746C172.183 44.2826 170.348 44.5864 168.204 44.5864C166.125 44.5864 164.273 44.1226 162.649 43.1947C161.025 42.2351 159.726 40.9234 158.751 39.2601C157.809 37.5965 157.241 35.7251 157.046 33.6457C156.981 32.6859 156.948 31.9502 156.948 31.4383C156.948 30.9264 156.981 30.1906 157.046 29.2309C157.241 27.2475 157.809 25.456 158.751 23.8565C159.726 22.2569 161.009 20.9933 162.6 20.0656C164.225 19.1379 166.092 18.674 168.204 18.674ZM175.074 29.3749V29.2309C175.074 27.2795 174.441 25.7279 173.174 24.5763C171.939 23.3926 170.283 22.8008 168.204 22.8008C166.32 22.8008 164.712 23.3926 163.38 24.5763C162.081 25.7599 161.415 27.3115 161.382 29.2309V29.3749H175.074Z" fill="white"/>
<path d="M189.772 21.9371C190.551 20.9454 191.429 20.1616 192.403 19.5857C193.377 18.9779 194.677 18.674 196.301 18.674C200.102 18.674 202.765 20.0656 204.292 22.8488C205.234 21.5052 206.306 20.4815 207.508 19.7777C208.71 19.0419 210.285 18.674 212.234 18.674C215.418 18.674 217.773 19.6177 219.3 21.5052C220.859 23.3926 221.638 26.0639 221.638 29.5188V42.8109C221.638 43.1628 221.509 43.4669 221.248 43.7227C220.989 43.9784 220.68 44.1065 220.323 44.1065H218.52C218.162 44.1065 217.854 43.9784 217.594 43.7227C217.334 43.4669 217.204 43.1628 217.204 42.8109V29.9987C217.204 25.2001 215.288 22.8008 211.455 22.8008C209.7 22.8008 208.304 23.3766 207.264 24.5283C206.225 25.68 205.705 27.3915 205.705 29.6628V42.8109C205.705 43.1628 205.575 43.4669 205.315 43.7227C205.055 43.9784 204.747 44.1065 204.39 44.1065H202.587C202.229 44.1065 201.921 43.9784 201.661 43.7227C201.401 43.4669 201.271 43.1628 201.271 42.8109V29.9987C201.271 25.2001 199.355 22.8008 195.521 22.8008C193.767 22.8008 192.37 23.3766 191.331 24.5283C190.292 25.68 189.772 27.3915 189.772 29.6628V42.8109C189.772 43.1628 189.642 43.4669 189.382 43.7227C189.122 43.9784 188.814 44.1065 188.456 44.1065H186.653C186.296 44.1065 185.988 43.9784 185.727 43.7227C185.468 43.4669 185.338 43.1628 185.338 42.8109V20.4495C185.338 20.0976 185.468 19.7937 185.727 19.5378C185.988 19.2818 186.296 19.1539 186.653 19.1539H188.456C188.814 19.1539 189.122 19.2818 189.382 19.5378C189.642 19.7937 189.772 20.0976 189.772 20.4495V21.9371Z" fill="white"/>
<path d="M235.285 52.0722C234.993 52.8401 234.522 53.2239 233.872 53.2239H231.874C231.549 53.2239 231.273 53.112 231.046 52.8882C230.819 52.664 230.705 52.3921 230.705 52.0722C230.705 51.9444 230.721 51.8322 230.753 51.7364L235.431 41.7072L225.784 20.6415C225.751 20.5455 225.735 20.4336 225.735 20.3056C225.735 19.9857 225.848 19.7138 226.076 19.4898C226.303 19.2659 226.579 19.1539 226.904 19.1539H228.902C229.551 19.1539 230.023 19.5378 230.315 20.3056L237.819 36.6208L245.42 20.3056C245.712 19.5378 246.183 19.1539 246.833 19.1539H248.831C249.155 19.1539 249.432 19.2659 249.659 19.4898C249.886 19.7138 250 19.9857 250 20.3056C250 20.4336 249.984 20.5455 249.951 20.6415L235.285 52.0722Z" fill="white"/>
<path d="M43.013 28.2319L26.6518 0.454635C26.5726 0.317476 26.4579 0.203222 26.3192 0.123404C26.1805 0.0435855 26.0228 0.0010254 25.8621 1.82984e-05C25.7013 -0.000988808 25.5431 0.0395925 25.4034 0.117667C25.2637 0.195742 25.1476 0.308549 25.0666 0.444705L20.1666 8.76797C20.0061 9.04042 19.9216 9.34948 19.9216 9.66408C19.9216 9.97868 20.0061 10.2877 20.1666 10.5602L30.8351 28.6812C30.9957 28.954 31.2268 29.1804 31.5051 29.3377C31.7834 29.495 32.0991 29.5776 32.4203 29.5773H42.2204C42.3807 29.5769 42.5383 29.5351 42.677 29.4563C42.8159 29.3775 42.9312 29.2643 43.0115 29.1281C43.0918 28.9919 43.1341 28.8375 43.1344 28.6802C43.1344 28.523 43.0927 28.3684 43.013 28.2319Z" fill="white"/>
<path d="M0.126161 42.7494L16.4873 14.9721C16.5675 14.8361 16.683 14.7231 16.8219 14.6445C16.9608 14.566 17.1183 14.5247 17.2786 14.5247C17.439 14.5247 17.5965 14.566 17.7354 14.6445C17.8743 14.7231 17.9897 14.8361 18.07 14.9721L22.9725 23.2879C23.1329 23.5609 23.2174 23.8703 23.2174 24.1853C23.2174 24.5003 23.1329 24.8098 22.9725 25.0827L12.3039 43.2038C12.1439 43.4763 11.9133 43.7029 11.6354 43.8602C11.3575 44.0174 11.0422 44.1001 10.7213 44.0998H0.918768C0.75729 44.1007 0.598485 44.0594 0.458495 43.9806C0.318501 43.9015 0.202335 43.7878 0.121803 43.6506C0.0412698 43.5134 -0.000758154 43.3577 1.03533e-05 43.1996C0.000778862 43.0411 0.0442999 42.886 0.126161 42.7494Z" fill="white"/>
<path d="M18.0676 44.0937H50.7898C50.9504 44.0937 51.1079 44.052 51.2469 43.9732C51.3859 43.8945 51.5012 43.781 51.5812 43.6448C51.6611 43.5085 51.7034 43.3537 51.7031 43.1965C51.7028 43.0389 51.6605 42.8844 51.5799 42.7485L46.6849 34.4276C46.5243 34.1548 46.2931 33.9285 46.0149 33.7713C45.7366 33.6137 45.4209 33.5313 45.0997 33.5316H23.7627C23.4414 33.5313 23.1258 33.6137 22.8475 33.7713C22.5692 33.9285 22.3381 34.1548 22.1775 34.4276L17.2775 42.7485C17.197 42.8844 17.1545 43.0389 17.1543 43.1965C17.1541 43.3537 17.1961 43.5085 17.2762 43.6448C17.3562 43.781 17.4716 43.8945 17.6105 43.9732C17.7494 44.052 17.907 44.0937 18.0676 44.0937Z" fill="white"/>
</svg>
