<svg width="130" height="29" viewBox="0 0 130 29" fill="none" xmlns="http://www.w3.org/2000/svg">
<path d="M11.0384 8.89478C11.2981 8.89478 11.5233 8.98901 11.7095 9.17518C11.8957 9.36135 11.9899 9.58659 11.9899 9.84631C11.9899 10.106 11.8957 10.329 11.7095 10.5151C11.5233 10.7036 11.2981 10.7955 11.0384 10.7955H2.48377V14.5994H9.13761C9.39732 14.5994 9.62027 14.6936 9.80873 14.8798C9.9949 15.0659 10.0891 15.2889 10.0891 15.5486C10.0891 15.8083 9.9949 16.0336 9.80873 16.2197C9.62027 16.4059 9.39732 16.5001 9.13761 16.5001H2.48377V20.3017H11.0384C11.2981 20.3017 11.5233 20.3959 11.7095 20.5821C11.8957 20.7705 11.9899 20.9935 11.9899 21.2532C11.9899 21.5129 11.8957 21.7359 11.7095 21.9243C11.5233 22.1105 11.2981 22.2047 11.0384 22.2047H1.53224C1.27252 22.2047 1.04958 22.1105 0.863411 21.9243C0.674943 21.7359 0.583008 21.5129 0.583008 21.2532V9.84631C0.583008 9.58659 0.674943 9.36135 0.863411 9.17518C1.04958 8.98901 1.27252 8.89478 1.53224 8.89478H11.0384ZM20.6824 10.7955C20.4227 10.7955 20.1997 10.7036 20.0136 10.5151C19.8251 10.329 19.7309 10.106 19.7309 9.84631C19.7309 9.58659 19.8251 9.36135 20.0136 9.17518C20.1997 8.98901 20.4227 8.89478 20.6824 8.89478H30.1885C30.4483 8.89478 30.6712 8.98901 30.8597 9.17518C31.0458 9.36135 31.1401 9.58659 31.1401 9.84631C31.1401 10.106 31.0458 10.329 30.8597 10.5151C30.6712 10.7036 30.4483 10.7955 30.1885 10.7955H20.6824ZM26.387 21.2532C26.387 21.5129 26.2928 21.7359 26.1066 21.9243C25.9181 22.1105 25.6952 22.2047 25.4355 22.2047C25.1758 22.2047 24.9528 22.1105 24.7643 21.9243C24.5782 21.7359 24.4862 21.5129 24.4862 21.2532V13.6478C24.4862 13.3881 24.5782 13.1652 24.7643 12.9767C24.9528 12.7905 25.1758 12.6986 25.4355 12.6986C25.6952 12.6986 25.9181 12.7905 26.1066 12.9767C26.2928 13.1652 26.387 13.3881 26.387 13.6478V21.2532ZM38.881 9.84631C38.881 9.58659 38.9753 9.36135 39.1614 9.17518C39.3499 8.98901 39.5729 8.89478 39.8326 8.89478C40.0923 8.89478 40.3152 8.98901 40.5014 9.17518C40.6899 9.36135 40.7841 9.58659 40.7841 9.84631V21.2532C40.7841 21.5129 40.6899 21.7359 40.5014 21.9243C40.3152 22.1105 40.0923 22.2047 39.8326 22.2047C39.5729 22.2047 39.3499 22.1105 39.1614 21.9243C38.9753 21.7359 38.881 21.5129 38.881 21.2532V9.84631ZM48.3895 9.84631C48.3895 9.58659 48.4814 9.36135 48.6699 9.17518C48.856 8.98901 49.079 8.89478 49.3387 8.89478C49.5984 8.89478 49.8214 8.98901 50.0098 9.17518C50.196 9.36135 50.2902 9.58659 50.2902 9.84631V21.2532C50.2902 21.5129 50.196 21.7359 50.0098 21.9243C49.8214 22.1105 49.5984 22.2047 49.3387 22.2047C49.079 22.2047 48.856 22.1105 48.6699 21.9243C48.4814 21.7359 48.3895 21.5129 48.3895 21.2532V16.5001H43.6364C43.3744 16.5001 43.1514 16.4059 42.9653 16.2197C42.7768 16.0336 42.6849 15.8083 42.6849 15.5486C42.6849 15.2889 42.7768 15.0659 42.9653 14.8798C43.1514 14.6936 43.3744 14.5994 43.6364 14.5994H48.3895V9.84631Z" fill="white"/>
<path d="M79.4521 9.84631C79.4521 9.58659 79.5464 9.36135 79.7326 9.17518C79.921 8.98901 80.144 8.89478 80.4037 8.89478C80.6634 8.89478 80.8863 8.98901 81.0725 9.17518C81.261 9.36135 81.3529 9.58659 81.3529 9.84631V14.5994H88.9583V9.84631C88.9583 9.58659 89.0525 9.36135 89.241 9.17518C89.4271 8.98901 89.6501 8.89478 89.9098 8.89478C90.1695 8.89478 90.3925 8.98901 90.5809 9.17518C90.7671 9.36135 90.8613 9.58659 90.8613 9.84631V21.2532C90.8613 21.5129 90.7671 21.7359 90.5809 21.9243C90.3925 22.1105 90.1695 22.2047 89.9098 22.2047C89.6501 22.2047 89.4271 22.1105 89.241 21.9243C89.0525 21.7359 88.9583 21.5129 88.9583 21.2532V16.5001H81.3529V21.2532C81.3529 21.5129 81.261 21.7359 81.0725 21.9243C80.8863 22.1105 80.6634 22.2047 80.4037 22.2047C80.144 22.2047 79.921 22.1105 79.7326 21.9243C79.5464 21.7359 79.4521 21.5129 79.4521 21.2532V9.84631ZM98.6023 9.84631C98.6023 9.58659 98.6965 9.36135 98.8827 9.17518C99.0712 8.98901 99.2941 8.89478 99.5538 8.89478C99.8136 8.89478 100.037 8.98901 100.223 9.17518C100.411 9.36135 100.503 9.58659 100.503 9.84631V16.5001C100.503 17.5528 100.875 18.4492 101.615 19.1915C102.358 19.9316 103.254 20.3017 104.307 20.3017C105.357 20.3017 106.256 19.9316 106.996 19.1915C107.738 18.4492 108.108 17.5528 108.108 16.5001V9.84631C108.108 9.58659 108.203 9.36135 108.389 9.17518C108.577 8.98901 108.8 8.89478 109.06 8.89478C109.32 8.89478 109.543 8.98901 109.729 9.17518C109.917 9.36135 110.012 9.58659 110.012 9.84631V16.5001C110.012 18.0791 109.453 19.4237 108.343 20.5361C107.23 21.6485 105.884 22.2047 104.307 22.2047C102.728 22.2047 101.383 21.6485 100.271 20.5361C99.1585 19.4237 98.6023 18.0791 98.6023 16.5001V9.84631ZM118.704 10.7955C118.442 10.7955 118.219 10.7036 118.033 10.5151C117.844 10.329 117.752 10.106 117.752 9.84631C117.752 9.58659 117.844 9.36135 118.033 9.17518C118.219 8.98901 118.442 8.89478 118.704 8.89478H125.358C126.408 8.89478 127.307 9.26482 128.047 10.0072C128.789 10.7496 129.159 11.6459 129.159 12.6986C129.159 13.749 128.789 14.6453 128.047 15.3877C127.992 15.4452 127.934 15.498 127.877 15.5486C127.934 15.5992 127.992 15.6543 128.047 15.7118C128.789 16.4519 129.159 17.3505 129.159 18.4009C129.159 19.4536 128.789 20.3499 128.047 21.0923C127.307 21.8347 126.408 22.2047 125.358 22.2047H118.704C118.442 22.2047 118.219 22.1105 118.033 21.9243C117.844 21.7359 117.752 21.5129 117.752 21.2532C117.752 20.9935 117.844 20.7705 118.033 20.5821C118.219 20.3959 118.442 20.3017 118.704 20.3017H125.358C125.884 20.3017 126.332 20.1178 126.702 19.7478C127.072 19.3754 127.259 18.9272 127.259 18.4009C127.259 17.8746 127.072 17.4264 126.702 17.0563C126.332 16.6863 125.884 16.5001 125.358 16.5001H118.704C118.442 16.5001 118.219 16.4059 118.033 16.2197C117.844 16.0336 117.752 15.8083 117.752 15.5486C117.752 15.2889 117.844 15.0659 118.033 14.8798C118.219 14.6936 118.442 14.5994 118.704 14.5994H125.358C125.884 14.5994 126.332 14.4132 126.702 14.0432C127.072 13.6708 127.259 13.2226 127.259 12.6986C127.259 12.1723 127.072 11.7241 126.702 11.3518C126.332 10.9817 125.884 10.7955 125.358 10.7955H118.704Z" fill="white"/>
<path d="M65.0879 21.7589V28.3206L73.7436 16.7551L65.0879 21.7589Z" fill="white"/>
<path d="M56 16.7554L64.5983 28.2448V21.7587L56 16.7554Z" fill="white"/>
<path d="M63.6303 3.14642L64.6278 1.47549V4.86101C64.7037 4.83343 64.7864 4.81735 64.8715 4.81735C64.9565 4.81735 65.0392 4.83343 65.1151 4.86101V1.47549L66.1128 3.14642C66.2163 3.01771 66.3654 2.92807 66.5332 2.89589L64.8715 0.112549L63.21 2.89589C63.3777 2.92807 63.5269 3.01771 63.6303 3.14642Z" fill="white"/>
<path d="M66.7998 4.29764L67.3422 5.20551C67.4571 5.08219 67.6117 5.00326 67.7789 4.98256L67.2204 4.04712C67.117 4.17353 66.9676 4.26547 66.7998 4.29764Z" fill="white"/>
<path d="M69.6953 9.14774L70.7571 10.929C70.8652 10.8026 71.0123 10.7152 71.1823 10.6854L70.1159 8.89722C70.0125 9.02593 69.8631 9.11786 69.6953 9.14774Z" fill="white"/>
<path d="M68.043 6.38054L69.0083 7.99631C69.1117 7.8699 69.2588 7.77796 69.4289 7.74578L68.4475 6.10474C68.351 6.24034 68.2085 6.33917 68.043 6.38054Z" fill="white"/>
<path d="M60.0476 9.14774C59.8798 9.11786 59.7304 9.02593 59.627 8.89722L58.5605 10.6854C58.7306 10.7152 58.8777 10.8026 58.9857 10.929L60.0476 9.14774Z" fill="white"/>
<path d="M62.943 4.29764C62.7729 4.26547 62.6258 4.17353 62.5224 4.04712L61.9639 4.98256C62.1362 5.00325 62.2879 5.08599 62.4006 5.20551L62.943 4.29764Z" fill="white"/>
<path d="M60.7341 7.99631L61.6971 6.38054C61.5339 6.33917 61.3914 6.24034 61.2949 6.10474L60.3135 7.74578C60.4813 7.77796 60.6307 7.8699 60.7341 7.99631Z" fill="white"/>
<path d="M64.9008 20.0349L73.6853 14.8773L71.8649 11.8274C71.7638 11.9584 71.6167 12.0526 71.4512 12.0871L72.7452 14.2567L69.1483 12.6663C69.1322 12.8386 69.0517 12.9926 68.9345 13.1053L72.8142 14.8199L65.1146 19.3431V11.4159L67.7256 12.5697C67.7309 12.4021 67.7952 12.2418 67.9071 12.1169L65.2157 10.9264L66.3419 9.9036C66.2638 9.84614 66.1948 9.77029 66.1466 9.68525L65.1146 10.6207V6.35029L66.3189 8.7659C66.3948 8.70384 66.4844 8.66017 66.581 8.63489L65.3145 6.09058C65.2357 6.15092 65.146 6.19541 65.0502 6.22158C64.9928 6.23537 64.933 6.24457 64.871 6.24457C64.8089 6.24457 64.7491 6.23537 64.6917 6.22158C64.5959 6.19541 64.5062 6.15092 64.4274 6.09058L63.161 8.63489C63.2575 8.66017 63.3471 8.70384 63.423 8.7659L64.6273 6.35029V10.6207L63.5954 9.68525C63.5471 9.77029 63.4781 9.84614 63.4 9.9036L64.5262 10.9264L61.8348 12.1169C61.9428 12.2388 62.0118 12.3974 62.0164 12.5697L64.6273 11.4159V19.3109L56.93 14.8199L60.8074 13.1053C60.6902 12.9926 60.6097 12.8386 60.5937 12.6663L56.9967 14.2567L58.2907 12.0871C58.1252 12.0526 57.9781 11.9584 57.877 11.8274L56.0566 14.8773L56.2704 15.0014L64.9008 20.0349Z" fill="white"/>
<path d="M70.7048 10.9973L67.4571 9.4873C67.4341 9.58384 67.3905 9.67347 67.333 9.75162L70.599 11.2732C70.6151 11.172 70.6519 11.0801 70.7048 10.9973Z" fill="white"/>
<path d="M70.7623 11.8525C70.6976 11.7765 70.6491 11.6881 70.6197 11.5928L69.0293 12.1927C69.0845 12.2731 69.1212 12.365 69.1396 12.4639L70.7623 11.8525Z" fill="white"/>
<path d="M68.2114 11.9168L67.2047 9.88501C67.1266 9.94477 67.037 9.99074 66.9404 10.016L67.9586 12.0662C68.0299 12.0018 68.1172 11.949 68.2114 11.9168Z" fill="white"/>
<path d="M66.8203 8.61398C66.9214 8.62317 67.0159 8.65075 67.1009 8.69672L67.7856 6.39833C67.6875 6.38734 67.5928 6.35603 67.5075 6.3064L66.8203 8.61398Z" fill="white"/>
<path d="M66.2988 4.20802C66.2138 4.15745 66.1402 4.0885 66.0851 4.00806L65.2393 4.91822C65.3243 4.96878 65.3978 5.03773 65.453 5.11818L66.2988 4.20802Z" fill="white"/>
<path d="M62.2857 9.4873L59.0381 10.9973C59.0909 11.0801 59.1277 11.172 59.1438 11.2732L62.4098 9.75162C62.3512 9.6727 62.309 9.58282 62.2857 9.4873Z" fill="white"/>
<path d="M58.9805 11.8525L60.6031 12.4639C60.6215 12.365 60.6583 12.2731 60.7135 12.1927L59.123 11.5928C59.0931 11.6893 59.0448 11.7766 58.9805 11.8525Z" fill="white"/>
<path d="M62.5389 9.88501L61.5322 11.9168C61.6265 11.949 61.7138 12.0018 61.7851 12.0662L62.8032 10.016C62.7067 9.99074 62.6171 9.94477 62.5389 9.88501Z" fill="white"/>
<path d="M62.9224 8.61398L62.2351 6.3064C62.1524 6.35466 62.0582 6.38684 61.957 6.39833L62.6419 8.69672C62.727 8.65075 62.8212 8.62317 62.9224 8.61398Z" fill="white"/>
<path d="M63.6581 4.00806C63.6029 4.0885 63.5294 4.15745 63.4443 4.20802L64.2901 5.11818C64.3453 5.03773 64.4188 4.96878 64.5039 4.91822L63.6581 4.00806Z" fill="white"/>
<path d="M68.9398 8.79603C68.8916 8.71329 68.8617 8.61675 68.8525 8.51562L67.3838 8.9776C67.4321 9.06034 67.4619 9.15458 67.4734 9.25571L68.9398 8.79603Z" fill="white"/>
<path d="M60.8037 8.79603L62.2701 9.25571C62.2816 9.15458 62.3115 9.06034 62.3597 8.9776L60.8911 8.51562C60.8819 8.61675 60.852 8.71329 60.8037 8.79603Z" fill="white"/>
<path fill-rule="evenodd" clip-rule="evenodd" d="M67.8689 5.13437H67.8713C68.1769 5.13667 68.4229 5.3849 68.4229 5.69058C68.4229 5.78482 68.3999 5.87445 68.3585 5.9526C68.2781 6.09969 68.131 6.20772 67.9586 6.2376C67.9287 6.24219 67.8988 6.24449 67.8689 6.24449C67.8575 6.24449 67.8437 6.24449 67.8322 6.24219C67.7311 6.2353 67.6345 6.20312 67.5564 6.14796C67.482 6.09688 67.4211 6.02866 67.3787 5.94904C67.3363 5.86943 67.3136 5.78078 67.3127 5.69058C67.315 5.56187 67.3564 5.44465 67.43 5.35042C67.5311 5.21941 67.6897 5.13437 67.8689 5.13437ZM67.6115 5.65381C67.6092 5.6653 67.6069 5.67679 67.6069 5.69058C67.6069 5.74115 67.623 5.78941 67.6483 5.83078C67.6805 5.87905 67.7242 5.91352 67.777 5.93421C67.8069 5.9457 67.8368 5.9503 67.8689 5.9503C67.8873 5.9503 67.9034 5.9503 67.9218 5.9457C68.0413 5.92042 68.1287 5.81699 68.131 5.69058C68.1287 5.54578 68.0137 5.42857 67.8689 5.42857C67.7356 5.42857 67.6276 5.5274 67.6115 5.65381ZM66.6207 3.04307C66.6368 3.04307 66.6506 3.04077 66.6667 3.04077C66.8138 3.04138 66.9547 3.10025 67.0585 3.20449C67.1623 3.30874 67.2206 3.44986 67.2206 3.59698C67.2206 3.7073 67.1884 3.81073 67.1309 3.89807C67.0852 3.96921 67.0237 4.02883 66.9511 4.07229C66.8786 4.11574 66.7969 4.14186 66.7126 4.14859C66.6965 4.15089 66.6828 4.15089 66.6667 4.15089C66.5747 4.15089 66.4874 4.12791 66.4115 4.08884C66.3219 4.04287 66.2484 3.97162 66.1955 3.88888C66.1426 3.80384 66.1128 3.70271 66.1128 3.59698C66.1127 3.45782 66.1649 3.32371 66.2589 3.22115C66.353 3.11859 66.4821 3.05504 66.6207 3.04307ZM66.4047 3.59698C66.4047 3.61307 66.4069 3.62916 66.4092 3.64295C66.4115 3.64755 66.4115 3.65214 66.4115 3.65444C66.4238 3.70538 66.4508 3.75156 66.4893 3.78715C66.5277 3.82273 66.5759 3.84613 66.6276 3.8544C66.6414 3.8567 66.6529 3.859 66.6667 3.859C66.8115 3.8567 66.9287 3.74178 66.9287 3.59698C66.9285 3.558 66.9195 3.51956 66.9024 3.48453C66.8853 3.44951 66.8605 3.41881 66.8299 3.39472C66.7862 3.35795 66.7287 3.33496 66.6667 3.33496C66.5219 3.33496 66.4047 3.45218 66.4047 3.59698ZM71.2726 10.8346H71.3048C71.6105 10.8346 71.8587 11.0828 71.8587 11.3885C71.8587 11.4942 71.8288 11.5931 71.776 11.6781C71.6886 11.8206 71.5369 11.9217 71.3623 11.9401C71.3439 11.9424 71.3232 11.9424 71.3048 11.9424C71.1577 11.9424 71.0221 11.885 70.9233 11.7907C70.852 11.7218 70.7969 11.6344 70.7693 11.5356C70.7578 11.4896 70.7486 11.4391 70.7486 11.3885C70.7486 11.3724 70.7509 11.3586 70.7509 11.3425C70.7601 11.2437 70.7923 11.1518 70.8474 11.0759C70.8474 11.0713 70.8497 11.069 70.852 11.0667C70.9463 10.9334 71.1003 10.8461 71.2726 10.8346ZM71.1278 11.1954C71.0773 11.2437 71.0428 11.3127 71.0428 11.3885C71.0428 11.3954 71.0451 11.4 71.0451 11.4069C71.0451 11.4138 71.0451 11.423 71.0474 11.4322C71.0497 11.4506 71.0543 11.4713 71.0635 11.4873C71.0842 11.5379 71.1209 11.5793 71.1646 11.6092C71.2037 11.6344 71.2496 11.6482 71.3002 11.6482C71.3002 11.6482 71.3025 11.6505 71.3048 11.6505C71.4473 11.6505 71.5645 11.5333 71.5645 11.3885C71.5645 11.3563 71.5576 11.3242 71.5484 11.2966C71.5369 11.269 71.5209 11.2414 71.5025 11.2207C71.4542 11.1633 71.383 11.1265 71.3048 11.1265C71.2359 11.1265 71.1761 11.1541 71.1278 11.1954ZM67.8848 12.5952C67.8848 12.4481 67.94 12.3171 68.0319 12.2182C68.0434 12.2067 68.0526 12.1952 68.0641 12.1861C68.1663 12.0921 68.2999 12.0396 68.4387 12.039C68.6157 12.039 68.772 12.1217 68.8754 12.2527C68.9352 12.3286 68.9742 12.4205 68.988 12.5216C68.9903 12.5469 68.9926 12.5699 68.9926 12.5952V12.5975C68.9926 12.7767 68.9076 12.933 68.7743 13.0342C68.6824 13.1054 68.5651 13.1491 68.4387 13.1491C68.1491 13.1491 67.9101 12.9261 67.8871 12.6411C67.8848 12.6273 67.8848 12.6113 67.8848 12.5952ZM68.1859 12.5285C68.1813 12.5492 68.1767 12.5722 68.1767 12.5952C68.1777 12.6606 68.2032 12.7233 68.2481 12.7708C68.2931 12.8184 68.3543 12.8473 68.4195 12.8519C68.4848 12.8565 68.5495 12.8365 68.6007 12.7958C68.6519 12.755 68.686 12.6966 68.6961 12.6319C68.6984 12.6204 68.7007 12.6067 68.7007 12.5952C68.7003 12.5489 68.6877 12.5036 68.6643 12.4637C68.641 12.4238 68.6075 12.3906 68.5674 12.3676C68.528 12.3458 68.4838 12.3339 68.4387 12.3331C68.4318 12.3331 68.4249 12.3354 68.418 12.3354H68.4042C68.2985 12.3515 68.2135 12.4274 68.1859 12.5285ZM61.3852 5.95237C61.3438 5.87422 61.3209 5.78459 61.3209 5.69035C61.3209 5.38467 61.5668 5.13644 61.8725 5.13414H61.8748C61.9477 5.13405 62.02 5.14839 62.0874 5.17634C62.1548 5.20429 62.216 5.24529 62.2675 5.29699C62.3189 5.34868 62.3597 5.41005 62.3874 5.47757C62.415 5.54508 62.4291 5.61739 62.4287 5.69035C62.4287 5.87882 62.3344 6.0466 62.1873 6.14773C62.1092 6.20289 62.0127 6.23507 61.9115 6.24196C61.9 6.24426 61.8863 6.24426 61.8748 6.24426C61.8449 6.24426 61.815 6.24196 61.7851 6.23737C61.6128 6.20749 61.4656 6.09946 61.3852 5.95237ZM61.6128 5.69035C61.615 5.81676 61.7024 5.92019 61.8219 5.94547C61.8403 5.95007 61.8564 5.95007 61.8748 5.95007C61.9069 5.95007 61.9368 5.94547 61.9667 5.93398C62.0196 5.9133 62.0632 5.87882 62.0954 5.83055C62.1207 5.78918 62.1368 5.74092 62.1368 5.69035C62.1368 5.67656 62.1345 5.66507 62.1322 5.65358C62.1161 5.52717 62.0081 5.42834 61.8748 5.42834C61.73 5.42834 61.615 5.54555 61.6128 5.69035ZM62.6123 3.89807C62.5549 3.81073 62.5227 3.7073 62.5227 3.59698C62.5227 3.44986 62.581 3.30874 62.6848 3.20449C62.7886 3.10025 62.9295 3.04138 63.0766 3.04077C63.0927 3.04077 63.1065 3.04307 63.1226 3.04307C63.2171 3.0512 63.308 3.08342 63.3866 3.13665C63.4652 3.18988 63.5289 3.26235 63.5715 3.34716C63.6141 3.43197 63.6343 3.52628 63.6302 3.62111C63.626 3.71594 63.5976 3.80812 63.5478 3.88888C63.4949 3.97162 63.4213 4.04287 63.3317 4.08884C63.2389 4.13652 63.1346 4.15722 63.0306 4.14859C62.9463 4.14186 62.8647 4.11574 62.7921 4.07229C62.7196 4.02883 62.6581 3.96921 62.6123 3.89807ZM62.8192 3.54871C62.8169 3.5648 62.8146 3.58089 62.8146 3.59698C62.8146 3.74178 62.9318 3.8567 63.0766 3.859C63.0904 3.859 63.1019 3.8567 63.1157 3.8544C63.1674 3.84613 63.2155 3.82273 63.254 3.78715C63.2924 3.75156 63.3195 3.70538 63.3317 3.65444C63.3317 3.65214 63.3317 3.64755 63.334 3.64295C63.3407 3.60529 63.3391 3.56661 63.3293 3.52964C63.3194 3.49267 63.3016 3.4583 63.2771 3.42895C63.2526 3.39959 63.2219 3.37597 63.1873 3.35973C63.1526 3.3435 63.1148 3.33504 63.0766 3.33496C63.0145 3.33496 62.9571 3.35795 62.9134 3.39472C62.8651 3.4338 62.8307 3.48666 62.8192 3.54871ZM57.9675 11.6781C57.9146 11.5931 57.8848 11.4942 57.8848 11.3885C57.8848 11.0828 58.133 10.8346 58.4387 10.8346H58.4709C58.6432 10.8461 58.7972 10.9334 58.8915 11.0667C58.8938 11.069 58.8961 11.0713 58.8961 11.0759C58.9512 11.1518 58.9834 11.2437 58.9926 11.3425C58.9926 11.3586 58.9949 11.3724 58.9949 11.3885C58.9949 11.4391 58.9857 11.4896 58.9742 11.5356C58.9466 11.6344 58.8915 11.7218 58.8202 11.7907C58.7214 11.885 58.5858 11.9424 58.4387 11.9424C58.4203 11.9424 58.3996 11.9424 58.3812 11.9401C58.2065 11.9217 58.0548 11.8206 57.9675 11.6781ZM58.195 11.2966C58.1859 11.3242 58.179 11.3563 58.179 11.3885C58.179 11.5333 58.2962 11.6505 58.4387 11.6505C58.441 11.6505 58.4433 11.6482 58.4433 11.6482C58.4938 11.6482 58.5398 11.6344 58.5789 11.6092C58.6225 11.5793 58.6593 11.5379 58.68 11.4873C58.6892 11.4713 58.6938 11.4506 58.6961 11.4322C58.6984 11.423 58.6984 11.4138 58.6984 11.4069C58.6984 11.4 58.7007 11.3954 58.7007 11.3885C58.7007 11.3127 58.6662 11.2437 58.6157 11.1954C58.5674 11.1541 58.5076 11.1265 58.4387 11.1265C58.3605 11.1265 58.2893 11.1633 58.241 11.2207C58.2226 11.2414 58.2065 11.269 58.195 11.2966ZM60.7506 12.5975V12.5952C60.7506 12.5699 60.7529 12.5469 60.7552 12.5216C60.769 12.4205 60.8081 12.3286 60.8678 12.2527C60.9713 12.1217 61.1276 12.039 61.3045 12.039C61.4434 12.0396 61.577 12.0921 61.6792 12.1861C61.6907 12.1952 61.6999 12.2067 61.7113 12.2182C61.8033 12.3171 61.8584 12.4481 61.8584 12.5952C61.8584 12.6113 61.8584 12.6273 61.8561 12.6411C61.8447 12.7796 61.7817 12.9087 61.6795 13.0028C61.5773 13.0969 61.4434 13.1491 61.3045 13.1491C61.1781 13.1491 61.0609 13.1054 60.969 13.0342C60.8357 12.933 60.7506 12.7767 60.7506 12.5975ZM61.1758 12.3676C61.1357 12.3906 61.1023 12.4238 61.0789 12.4637C61.0555 12.5036 61.043 12.5489 61.0425 12.5952C61.0425 12.6067 61.0448 12.6204 61.0471 12.6319C61.0573 12.6966 61.0914 12.755 61.1426 12.7958C61.1938 12.8365 61.2584 12.8565 61.3237 12.8519C61.389 12.8473 61.4501 12.8184 61.4951 12.7708C61.5401 12.7233 61.5656 12.6606 61.5665 12.5952C61.5655 12.5319 61.5421 12.4711 61.5004 12.4235C61.4588 12.376 61.4016 12.3448 61.339 12.3354H61.3252C61.3183 12.3354 61.3114 12.3331 61.3045 12.3331C61.2586 12.3331 61.2149 12.3469 61.1758 12.3676ZM64.3179 5.52992C64.3179 5.4242 64.3478 5.32284 64.4007 5.2378C64.4535 5.15506 64.5271 5.08381 64.6167 5.03784C64.619 5.03554 64.6236 5.03554 64.6282 5.03324C64.7038 4.99531 64.7873 4.97556 64.8719 4.97556C64.9565 4.97556 65.0399 4.99531 65.1155 5.03324C65.1201 5.03554 65.1247 5.03554 65.127 5.03784C65.2166 5.08381 65.2902 5.15506 65.343 5.2378C65.3959 5.32284 65.4258 5.42397 65.4258 5.52969C65.4262 5.65812 65.3819 5.7827 65.3006 5.88208C65.2192 5.98146 65.1059 6.04945 64.9799 6.07441C64.9454 6.08131 64.9086 6.0859 64.8719 6.0859C64.8351 6.0859 64.7983 6.08131 64.7638 6.07441C64.7167 6.06537 64.6711 6.0499 64.6282 6.02844C64.5349 5.98281 64.4563 5.91183 64.4015 5.82363C64.3466 5.73543 64.3177 5.63357 64.3179 5.52969V5.52992ZM64.6167 5.47246C64.6044 5.52144 64.6084 5.5731 64.6282 5.61956C64.6328 5.63335 64.6374 5.64484 64.6443 5.65863C64.6834 5.72759 64.7546 5.77585 64.8374 5.78734C64.8489 5.78964 64.8604 5.79194 64.8719 5.79194C64.8834 5.79194 64.8948 5.78964 64.9063 5.78734C64.9891 5.77585 65.0603 5.72759 65.0994 5.65863C65.1063 5.64484 65.1109 5.63335 65.1155 5.61956C65.127 5.59198 65.1339 5.5621 65.1339 5.52992C65.1339 5.51154 65.1293 5.49085 65.127 5.47246C65.1247 5.46097 65.1201 5.45178 65.1155 5.44029C65.0833 5.35295 65.0052 5.28836 64.9109 5.27228C64.8971 5.26998 64.8857 5.26998 64.8719 5.26998C64.8581 5.26998 64.8466 5.26998 64.8328 5.27228C64.7386 5.28836 64.6604 5.35272 64.6282 5.44006C64.6236 5.45155 64.619 5.46074 64.6167 5.47223V5.47246ZM62.8743 9.86905C62.7755 9.85066 62.6859 9.80469 62.6123 9.73804C62.5939 9.72195 62.5755 9.70356 62.5595 9.68288C62.4951 9.60933 62.4514 9.5174 62.4353 9.41856C62.4307 9.38639 62.4261 9.35651 62.4261 9.32433C62.4261 9.31744 62.4284 9.31284 62.4284 9.30594C62.4307 9.20252 62.4629 9.10598 62.5158 9.02554C62.5595 8.95659 62.6192 8.89913 62.6882 8.85546C62.7709 8.8026 62.8651 8.77272 62.9686 8.77042H62.9824C63.0191 8.77042 63.0536 8.77502 63.0881 8.78191C63.1892 8.8003 63.2788 8.84627 63.3501 8.91292C63.465 9.01405 63.5363 9.16115 63.5363 9.32433C63.5363 9.41627 63.5133 9.50131 63.4765 9.57485C63.4305 9.66449 63.3616 9.74034 63.2788 9.7932C63.1915 9.84836 63.0904 9.88054 62.9824 9.88054C62.9456 9.88054 62.9088 9.87594 62.8743 9.86905ZM62.9824 9.58635C62.9938 9.58635 63.0053 9.58405 63.0168 9.58175C63.026 9.58175 63.0352 9.57945 63.0421 9.57945C63.1455 9.55417 63.2237 9.46683 63.2398 9.3611C63.2398 9.34961 63.2421 9.33812 63.2421 9.32433C63.2421 9.27836 63.2306 9.23469 63.2076 9.19792C63.1922 9.16926 63.1713 9.14394 63.146 9.12342C63.1208 9.10291 63.0917 9.0876 63.0605 9.0784C63.0355 9.06919 63.009 9.06452 62.9824 9.06461C62.9686 9.06461 62.9571 9.06461 62.9456 9.06691C62.8996 9.07381 62.8559 9.09219 62.8192 9.11977C62.8054 9.13356 62.7916 9.14506 62.7801 9.16115C62.7525 9.19562 62.7318 9.23699 62.7249 9.28296C62.7226 9.29675 62.7203 9.31054 62.7203 9.32433C62.7206 9.36948 62.7324 9.41382 62.7548 9.45304C62.7778 9.49211 62.81 9.52429 62.8491 9.54957C62.8881 9.57256 62.9318 9.58635 62.9824 9.58635ZM66.7749 8.77042C66.8784 8.77272 66.9726 8.8026 67.0553 8.85546C67.1243 8.89913 67.184 8.95659 67.2277 9.02554C67.2806 9.10598 67.3127 9.20252 67.315 9.30594C67.315 9.31284 67.3173 9.31744 67.3173 9.32433C67.3173 9.35651 67.3127 9.38639 67.3081 9.41856C67.2921 9.5174 67.2484 9.60933 67.184 9.68288C67.1679 9.70356 67.1496 9.72195 67.1312 9.73804C67.0576 9.80469 66.968 9.85066 66.8692 9.86905C66.8347 9.87594 66.7979 9.88054 66.7611 9.88054C66.6531 9.88054 66.552 9.84836 66.4646 9.7932C66.3819 9.74034 66.3129 9.66449 66.267 9.57485C66.2302 9.50131 66.2072 9.41627 66.2072 9.32433C66.2072 9.16115 66.2785 9.01405 66.3934 8.91292C66.4646 8.84627 66.5543 8.8003 66.6554 8.78191C66.6899 8.77502 66.7244 8.77042 66.7611 8.77042H66.7749ZM66.7979 9.06691C66.7864 9.06461 66.7749 9.06461 66.7611 9.06461C66.7336 9.06461 66.7083 9.06921 66.683 9.0784C66.6186 9.09679 66.5681 9.14046 66.5359 9.19792C66.5129 9.23469 66.5014 9.27836 66.5014 9.32433C66.5014 9.33812 66.5037 9.34961 66.5037 9.3611C66.5198 9.46683 66.5979 9.55417 66.7014 9.57945C66.7083 9.57945 66.7175 9.58175 66.7267 9.58175C66.7382 9.58405 66.7496 9.58635 66.7611 9.58635C66.8117 9.58635 66.8554 9.57256 66.8944 9.54957C66.9335 9.52429 66.9657 9.49211 66.9887 9.45304C67.011 9.41382 67.0229 9.36948 67.0231 9.32433C67.0231 9.31054 67.0208 9.29675 67.0186 9.28296C67.0117 9.23699 66.991 9.19562 66.9634 9.16115C66.9519 9.14506 66.9381 9.13356 66.9243 9.11977C66.8875 9.09219 66.8439 9.07381 66.7979 9.06691ZM69.5169 7.89473C69.533 7.89473 69.5468 7.89244 69.5629 7.89244C69.8686 7.89244 70.1168 8.14066 70.1168 8.44635C70.1168 8.55897 70.0846 8.6624 70.0271 8.74973C69.9814 8.82088 69.9199 8.8805 69.8473 8.92395C69.7747 8.96741 69.6931 8.99352 69.6088 9.00026C69.5927 9.00026 69.579 9.00256 69.5629 9.00256C69.3675 9.00256 69.1951 8.89913 69.0963 8.74744C69.0434 8.66469 69.0136 8.57046 69.009 8.46703V8.44635C69.009 8.33602 69.0411 8.2326 69.0986 8.14526C69.1443 8.07412 69.2059 8.01449 69.2784 7.97104C69.351 7.92759 69.4326 7.90147 69.5169 7.89473ZM69.3146 8.3705C69.2997 8.41013 69.2965 8.45322 69.3054 8.49461C69.3169 8.55667 69.3514 8.60953 69.3997 8.64861C69.3997 8.6509 69.3997 8.6509 69.402 8.6509C69.4456 8.68768 69.5008 8.70836 69.5629 8.70836C69.7077 8.70836 69.8249 8.59115 69.8249 8.44635C69.8249 8.43026 69.8226 8.41647 69.8203 8.40038C69.8088 8.33832 69.7743 8.28316 69.726 8.24639C69.6824 8.20961 69.6249 8.18663 69.5629 8.18663C69.4456 8.18663 69.3468 8.26477 69.3146 8.3705ZM59.7166 8.74973C59.6575 8.65964 59.6263 8.5541 59.6269 8.44635C59.6269 8.14066 59.8752 7.89244 60.1809 7.89244C60.1969 7.89244 60.2107 7.89473 60.2268 7.89473C60.4015 7.90852 60.5555 8.00506 60.6451 8.14526C60.7026 8.2326 60.7348 8.33602 60.7348 8.44635V8.46703C60.7302 8.57046 60.7003 8.66469 60.6474 8.74744C60.5486 8.89913 60.3762 9.00256 60.1809 9.00256C60.1648 9.00256 60.151 9.00026 60.1349 9.00026C60.0506 8.99352 59.969 8.96741 59.8964 8.92395C59.8239 8.8805 59.7623 8.82088 59.7166 8.74973ZM59.9234 8.40038C59.9211 8.41647 59.9188 8.43026 59.9188 8.44635C59.9188 8.59115 60.0361 8.70836 60.1809 8.70836C60.2429 8.70836 60.2981 8.68768 60.3417 8.6509C60.344 8.6509 60.344 8.6509 60.344 8.64861C60.3923 8.60953 60.4268 8.55667 60.4383 8.49461C60.4406 8.47852 60.4429 8.46244 60.4429 8.44635C60.4429 8.42106 60.436 8.39578 60.4291 8.3705C60.3969 8.26477 60.2981 8.18663 60.1809 8.18663C60.1188 8.18663 60.0613 8.20961 60.0177 8.24639C59.9694 8.28316 59.9349 8.33832 59.9234 8.40038Z" fill="white"/>
</svg>
