<svg width="110" height="30" viewBox="0 0 110 30" fill="none" xmlns="http://www.w3.org/2000/svg">
<path d="M14.0482 0.525391H7.16895V7.40469H14.0482V0.525391Z" fill="white"/>
<path d="M7.16933 7.40479H0.290039V14.2841H7.16933V7.40479Z" fill="white"/>
<path d="M14.0482 14.2839H7.16895V22.146H14.0482V14.2839Z" fill="white"/>
<path d="M7.16933 22.146H0.290039V29.0253H7.16933V22.146Z" fill="white"/>
<path d="M24.1982 20.1805V9.28369H31.0854V10.9662H26.1795V13.7493H30.5351V15.4318H26.1795V20.1805H24.1982ZM39.1569 19.9289C38.79 20.0233 38.3131 20.1176 37.726 20.2119C37.139 20.3168 36.4943 20.3692 35.7919 20.3692C35.1315 20.3692 34.576 20.2748 34.1252 20.0861C33.6849 19.8975 33.3285 19.6354 33.0559 19.2999C32.7939 18.9645 32.6052 18.5661 32.4899 18.1049C32.3746 17.6332 32.3169 17.1195 32.3169 16.5639V11.9568H34.2195V16.2652C34.2195 17.1457 34.3453 17.7747 34.5969 18.1521C34.859 18.5295 35.3098 18.7182 35.9492 18.7182C36.1798 18.7182 36.4209 18.7076 36.6725 18.6867C36.9346 18.6658 37.1285 18.6395 37.2543 18.6081V11.9568H39.1569V19.9289ZM41.4842 9.78686L43.3869 9.47238V11.9568H46.3115V13.5449H43.3869V16.8942C43.3869 17.5546 43.4916 18.0263 43.7013 18.3093C43.911 18.5924 44.2674 18.7339 44.7706 18.7339C45.1165 18.7339 45.4205 18.6972 45.6826 18.6238C45.9551 18.5504 46.17 18.4823 46.3273 18.4194L46.6417 19.9289C46.4216 20.0233 46.1333 20.1176 45.7769 20.2119C45.4205 20.3168 45.0011 20.3692 44.5189 20.3692C43.9319 20.3692 43.4392 20.2906 43.0409 20.1333C42.653 19.9761 42.3438 19.7507 42.1132 19.4572C41.8825 19.1532 41.7201 18.7916 41.6258 18.3722C41.5314 17.9425 41.4842 17.455 41.4842 16.9099V9.78686ZM54.8964 19.9289C54.5294 20.0233 54.0525 20.1176 53.4655 20.2119C52.8784 20.3168 52.2337 20.3692 51.5314 20.3692C50.871 20.3692 50.3154 20.2748 49.8647 20.0861C49.4244 19.8975 49.068 19.6354 48.7955 19.2999C48.5333 18.9645 48.3447 18.5661 48.2294 18.1049C48.114 17.6332 48.0564 17.1195 48.0564 16.5639V11.9568H49.959V16.2652C49.959 17.1457 50.0848 17.7747 50.3364 18.1521C50.5984 18.5295 51.0492 18.7182 51.6887 18.7182C51.9192 18.7182 52.1604 18.7076 52.412 18.6867C52.674 18.6658 52.868 18.6395 52.9938 18.6081V11.9568H54.8964V19.9289ZM62.0038 13.6707C61.8466 13.6183 61.6264 13.5659 61.3434 13.5135C61.0708 13.4506 60.7511 13.4191 60.3842 13.4191C60.1745 13.4191 59.9491 13.4401 59.7081 13.482C59.4774 13.524 59.315 13.5606 59.2206 13.5921V20.1805H57.318V12.3499C57.6849 12.2136 58.1409 12.0878 58.686 11.9725C59.2416 11.8467 59.8548 11.7838 60.5257 11.7838C60.6515 11.7838 60.7982 11.7943 60.966 11.8153C61.1337 11.8258 61.3014 11.8467 61.4692 11.8782C61.6368 11.8991 61.7994 11.9305 61.9566 11.9725C62.1139 12.004 62.2397 12.0354 62.334 12.0669L62.0038 13.6707ZM63.2038 16.1079C63.2038 15.3846 63.3087 14.7505 63.5183 14.2053C63.7385 13.6602 64.0267 13.2095 64.3831 12.8531C64.7396 12.4862 65.1484 12.2136 65.6096 12.0354C66.0708 11.8467 66.5426 11.7524 67.0248 11.7524C68.1569 11.7524 69.0375 12.1035 69.6664 12.8059C70.3059 13.5083 70.6256 14.5565 70.6256 15.9507C70.6256 16.0556 70.6204 16.1761 70.6099 16.3124C70.6099 16.4382 70.6047 16.5534 70.5942 16.6583H65.1693C65.2217 17.3187 65.4524 17.8324 65.8612 18.1993C66.2805 18.5557 66.8833 18.7339 67.6695 18.7339C68.1307 18.7339 68.55 18.6919 68.9274 18.6081C69.3153 18.5243 69.6193 18.4351 69.8394 18.3408L70.091 19.8975C69.9861 19.9498 69.8394 20.0075 69.6507 20.0704C69.4725 20.1228 69.2628 20.17 69.0218 20.2119C68.7911 20.2643 68.5395 20.3063 68.267 20.3377C67.9945 20.3692 67.7167 20.3849 67.4336 20.3849C66.7103 20.3849 66.0813 20.28 65.5467 20.0704C65.0121 19.8503 64.5718 19.5515 64.2259 19.1741C63.88 18.7863 63.6232 18.3356 63.4554 17.8219C63.2877 17.2978 63.2038 16.7264 63.2038 16.1079ZM68.723 15.2588C68.723 14.9967 68.6863 14.7505 68.6129 14.5198C68.5395 14.2787 68.4294 14.0743 68.2827 13.9066C68.1464 13.7284 67.9734 13.5921 67.7638 13.4977C67.5646 13.3929 67.3235 13.3405 67.0405 13.3405C66.747 13.3405 66.4902 13.3982 66.27 13.5135C66.0499 13.6183 65.8612 13.7599 65.704 13.938C65.5572 14.1162 65.4419 14.3206 65.358 14.5513C65.2742 14.7819 65.2165 15.0178 65.1851 15.2588H68.723ZM74.7027 18.8125C75.2058 18.8125 75.5728 18.7548 75.8034 18.6395C76.034 18.5137 76.1493 18.3041 76.1493 18.0106C76.1493 17.738 76.0235 17.5126 75.7719 17.3344C75.5308 17.1563 75.1272 16.9623 74.5612 16.7526C74.2152 16.6268 73.8955 16.4958 73.602 16.3595C73.319 16.2128 73.0727 16.0451 72.863 15.8564C72.6533 15.6677 72.4856 15.4423 72.3598 15.1802C72.2445 14.9077 72.1868 14.5775 72.1868 14.1896C72.1868 13.4349 72.4646 12.8425 73.0202 12.4128C73.5758 11.9725 74.3306 11.7524 75.2845 11.7524C75.7667 11.7524 76.2279 11.7995 76.6682 11.8939C77.1085 11.9777 77.4387 12.0616 77.6588 12.1455L77.3129 13.6864C77.1032 13.5921 76.8359 13.5083 76.5109 13.4349C76.1861 13.351 75.8087 13.3091 75.3788 13.3091C74.991 13.3091 74.6765 13.3772 74.4354 13.5135C74.1943 13.6393 74.0737 13.8385 74.0737 14.111C74.0737 14.2473 74.0947 14.3678 74.1366 14.4726C74.1891 14.5775 74.2729 14.6771 74.3882 14.7714C74.5036 14.8552 74.6555 14.9444 74.8442 15.0387C75.0329 15.1225 75.2635 15.2117 75.5361 15.306C75.9868 15.4738 76.3694 15.6414 76.6839 15.8092C76.9984 15.9664 77.2553 16.1499 77.4544 16.3595C77.6641 16.5587 77.816 16.7893 77.9104 17.0514C78.0047 17.3135 78.0519 17.628 78.0519 17.9948C78.0519 18.781 77.7585 19.3786 77.1714 19.7874C76.5949 20.1857 75.7667 20.3849 74.6869 20.3849C73.9636 20.3849 73.3819 20.322 72.9416 20.1962C72.5013 20.0809 72.1921 19.9866 72.0139 19.9132L72.3441 18.325C72.6271 18.4403 72.9626 18.5504 73.3504 18.6553C73.7488 18.7601 74.1995 18.8125 74.7027 18.8125ZM84.7351 15.0073C84.4941 15.9298 84.232 16.8313 83.9489 17.7118C83.6764 18.5818 83.4039 19.4048 83.1313 20.1805H81.5746C81.365 19.6983 81.1448 19.1479 80.9142 18.5295C80.6836 17.911 80.453 17.2506 80.2223 16.5482C79.9918 15.8458 79.7611 15.1068 79.5305 14.3311C79.2999 13.5554 79.0745 12.7639 78.8543 11.9568H80.867C80.9614 12.3971 81.0714 12.874 81.1972 13.3877C81.323 13.8909 81.4541 14.4097 81.5903 14.9444C81.7266 15.4685 81.8682 15.9822 82.0149 16.4853C82.1617 16.9885 82.3084 17.4497 82.4552 17.869C82.6124 17.3868 82.7644 16.8889 82.9111 16.3753C83.0684 15.8616 83.2152 15.348 83.3514 14.8343C83.4877 14.3206 83.6135 13.8227 83.7288 13.3405C83.8546 12.8479 83.9647 12.3865 84.059 11.9568H85.5213C85.6157 12.3865 85.7206 12.8479 85.8358 13.3405C85.9512 13.8227 86.0717 14.3206 86.1975 14.8343C86.3338 15.348 86.4753 15.8616 86.622 16.3753C86.7793 16.8889 86.9365 17.3868 87.0938 17.869C87.2301 17.4497 87.3716 16.9885 87.5183 16.4853C87.6651 15.9822 87.8066 15.4685 87.9429 14.9444C88.0897 14.4097 88.2259 13.8909 88.3517 13.3877C88.4775 12.874 88.5875 12.3971 88.6819 11.9568H90.6474C90.4273 12.7639 90.2019 13.5554 89.9713 14.3311C89.7407 15.1068 89.5101 15.8458 89.2794 16.5482C89.0489 17.2506 88.8182 17.911 88.5875 18.5295C88.357 19.1479 88.1315 19.6983 87.9114 20.1805H86.3704C86.0979 19.4048 85.8149 18.5818 85.5213 17.7118C85.2383 16.8313 84.9763 15.9298 84.7351 15.0073ZM94.9916 18.8439C95.5786 18.8439 96.0242 18.8125 96.3281 18.7496V16.6426C96.2233 16.6111 96.0713 16.5797 95.8721 16.5482C95.6729 16.5168 95.4528 16.5011 95.2117 16.5011C95.0021 16.5011 94.7872 16.5168 94.567 16.5482C94.3574 16.5797 94.1634 16.6374 93.9852 16.7212C93.8175 16.805 93.6813 16.9256 93.5764 17.0828C93.4715 17.2296 93.4192 17.4183 93.4192 17.6489C93.4192 18.0997 93.5607 18.4142 93.8437 18.5924C94.1268 18.7601 94.5093 18.8439 94.9916 18.8439ZM94.8343 11.7524C95.4633 11.7524 95.9927 11.831 96.4225 11.9882C96.8522 12.1455 97.1929 12.3656 97.4445 12.6486C97.7066 12.9317 97.89 13.2776 97.9949 13.6864C98.1102 14.0847 98.1679 14.525 98.1679 15.0073V19.9918C97.8743 20.0547 97.4288 20.1281 96.8313 20.2119C96.2443 20.3063 95.5786 20.3535 94.8343 20.3535C94.3417 20.3535 93.8909 20.3063 93.4821 20.2119C93.0732 20.1176 92.7221 19.9656 92.4286 19.7559C92.1455 19.5463 91.9202 19.2737 91.7524 18.9383C91.5952 18.6029 91.5166 18.1887 91.5166 17.6961C91.5166 17.2244 91.6057 16.826 91.7839 16.5011C91.9725 16.1761 92.2241 15.9141 92.5386 15.7148C92.8531 15.5052 93.2148 15.3584 93.6236 15.2746C94.0429 15.1802 94.4779 15.1331 94.9287 15.1331C95.1383 15.1331 95.3585 15.1488 95.5891 15.1802C95.8198 15.2012 96.066 15.2431 96.3281 15.306V14.9915C96.3281 14.7714 96.3019 14.5618 96.2495 14.3626C96.1971 14.1634 96.1028 13.9904 95.9665 13.8437C95.8407 13.6864 95.6677 13.5659 95.4476 13.482C95.238 13.3982 94.9706 13.3562 94.6456 13.3562C94.2054 13.3562 93.8018 13.3877 93.4349 13.4506C93.068 13.5135 92.7693 13.5869 92.5386 13.6707L92.3028 12.1298C92.5438 12.0459 92.8951 11.962 93.3563 11.8782C93.8175 11.7943 94.3102 11.7524 94.8343 11.7524ZM105.954 16.1079C105.954 15.2588 105.76 14.5984 105.372 14.1267C104.995 13.655 104.381 13.4191 103.532 13.4191C103.354 13.4191 103.166 13.4296 102.966 13.4506C102.777 13.4611 102.589 13.4925 102.4 13.5449V18.2464C102.568 18.3617 102.788 18.4718 103.06 18.5766C103.344 18.671 103.642 18.7182 103.957 18.7182C104.649 18.7182 105.152 18.4823 105.466 18.0106C105.792 17.5388 105.954 16.9047 105.954 16.1079ZM107.904 16.0765C107.904 16.7055 107.82 17.282 107.652 17.8062C107.495 18.3303 107.265 18.781 106.96 19.1584C106.656 19.5358 106.274 19.8294 105.812 20.039C105.362 20.2486 104.848 20.3535 104.271 20.3535C103.884 20.3535 103.527 20.3063 103.202 20.2119C102.878 20.1176 102.61 20.0127 102.4 19.8975V23.0895H100.497V12.2241C100.886 12.1192 101.362 12.0197 101.928 11.9253C102.494 11.831 103.092 11.7838 103.721 11.7838C104.371 11.7838 104.953 11.8834 105.466 12.0826C105.98 12.2818 106.416 12.57 106.771 12.9474C107.139 13.3143 107.416 13.7651 107.605 14.2997C107.804 14.8238 107.904 15.4161 107.904 16.0765Z" fill="white"/>
</svg>
