<svg width="105" height="29" viewBox="0 0 105 29" fill="none" xmlns="http://www.w3.org/2000/svg">
<path d="M21.1756 13.6263C19.7805 13.6263 18.5714 14.7424 18.3853 16.1375H14.572C14.479 15.6725 14.293 15.2074 14.014 14.8354L18.5714 10.185C19.4084 10.7431 20.6176 10.6501 21.2686 9.813C21.9197 8.97593 21.9197 7.76681 21.1756 7.02274C20.4315 6.27867 19.3154 6.18567 18.4784 6.83673C17.6413 7.48779 17.4553 8.6969 18.0133 9.62699L13.4559 14.2774C13.0839 13.9983 12.6189 13.8123 12.1538 13.7193V5.62761C13.735 5.44162 14.7581 3.95349 14.572 2.46536C14.479 0.884233 12.9909 -0.138856 11.5028 0.0471599C10.0146 0.233176 8.89857 1.7213 9.08453 3.30244C9.27055 4.51154 10.2006 5.53461 11.5028 5.72062V13.7193C11.0377 13.8123 10.5727 13.9983 10.2006 14.2774L6.57336 10.5571C6.85238 9.90601 6.57336 9.16194 6.0153 8.88292C5.92229 8.88292 5.92229 8.88292 5.82929 8.78991C5.27123 8.51088 4.71319 8.6969 4.34116 9.16194C4.06213 9.62699 4.06213 10.278 4.43417 10.6501C4.8062 11.1151 5.36424 11.2081 5.9223 10.9291L9.54958 14.7424C8.89857 15.6725 8.80556 16.9746 9.36356 17.9977L3.59709 23.9502C2.85303 23.2992 1.64393 23.3922 0.992872 24.2292C0.341817 25.0663 0.341817 26.2754 1.08588 27.0194C1.82994 27.7635 2.94604 27.8565 3.78311 27.2055C4.62018 26.5544 4.8062 25.3453 4.24815 24.4153L9.92161 18.5558C10.2936 18.9277 10.8517 19.2068 11.4098 19.2998V24.3222C10.3867 24.5083 9.73559 25.5314 9.8286 26.5544C9.92161 27.6705 10.8517 28.5076 11.9678 28.4146C12.9909 28.3216 13.735 27.5775 13.828 26.5544C13.921 25.5314 13.2699 24.5083 12.2468 24.3222V19.2998C12.7119 19.2068 13.1769 19.0208 13.549 18.7418L17.1762 22.4621C17.0832 22.6481 17.0832 22.8341 17.0832 23.0201C17.0832 23.6712 17.6413 24.2292 18.2923 24.2292C18.9434 24.2292 19.5015 23.6712 19.5015 23.0201C19.5015 22.3691 18.9434 21.811 18.2923 21.811C18.1063 21.811 17.9203 21.811 17.7343 21.904L14.107 18.1837C14.386 17.8117 14.572 17.3466 14.6651 16.8816H18.4784C18.6644 18.3697 20.0595 19.4858 21.5476 19.3928C23.1287 19.2068 24.2448 17.7187 24.0588 16.1375C23.7798 14.7424 22.6637 13.6263 21.1756 13.6263Z" fill="white"/>
<path d="M32.7087 18.3698C32.9876 18.3698 33.1736 18.6488 33.1736 18.8348C33.1736 19.1138 32.9876 19.2998 32.7087 19.2998H29.8254C29.5464 19.2998 29.3604 19.1138 29.3604 18.8348V13.1613C29.3604 12.8823 29.6394 12.6963 29.8254 12.6963C30.1044 12.6963 30.2904 12.8823 30.2904 13.1613V18.3698H32.7087Z" fill="white"/>
<path d="M37.1725 18.3698C37.4516 18.3698 37.6376 18.6488 37.6376 18.8348C37.6376 19.1138 37.4516 19.2998 37.1725 19.2998H34.2893C34.0102 19.2998 33.8242 19.0208 33.8242 18.8348C33.8242 18.5558 34.0102 18.3698 34.2893 18.3698H35.2194V13.6264H34.2893C34.0102 13.6264 33.8242 13.3474 33.8242 13.1613C33.8242 12.8823 34.0102 12.6963 34.2893 12.6963H37.1725C37.4516 12.6963 37.6376 12.9753 37.6376 13.1613C37.6376 13.4404 37.4516 13.6264 37.1725 13.6264H36.2424V18.3698H37.1725Z" fill="white"/>
<path d="M41.9163 18.4628C42.0094 18.0907 42.1024 17.7187 42.1024 17.4397V14.4634C42.1024 13.4403 41.1723 12.6033 40.1492 12.6033C39.1261 12.6033 38.2891 13.5334 38.2891 14.5565V17.4397C38.2891 17.8117 38.3821 18.0907 38.5681 18.3698C39.1261 19.2998 40.2422 19.5789 41.1723 19.0208L41.3583 19.2068C41.5443 19.2998 41.8233 19.2998 42.0094 19.0208C42.1024 18.9278 42.1024 18.8348 42.1024 18.7418C42.1024 18.6488 42.0094 18.5558 41.9163 18.4628ZM41.1723 17.4397C41.1723 17.5327 41.1723 17.6257 41.1723 17.6257L40.7072 17.1606C40.5212 17.0676 40.2422 17.0676 40.0562 17.3467C39.9632 17.4397 39.9632 17.5327 39.9632 17.6257C39.9632 17.8117 40.0562 17.9047 40.1492 17.9977L40.5212 18.3698C40.4282 18.3698 40.3352 18.3698 40.2422 18.3698C39.6841 18.3698 39.3121 17.9047 39.3121 17.4397V14.5565C39.3121 13.9984 39.7771 13.6264 40.3352 13.6264C40.8932 13.6264 41.2653 14.0914 41.2653 14.6495L41.1723 17.4397Z" fill="white"/>
<path d="M45.6372 13.1613C45.6372 12.8823 45.9162 12.6963 46.1022 12.6963C46.3812 12.6963 46.5673 12.8823 46.5673 13.1613V17.4397C46.5673 18.4628 45.8232 19.3928 44.7071 19.3928C43.684 19.3928 42.7539 18.6488 42.7539 17.5327C42.7539 17.4397 42.7539 17.4397 42.7539 17.3467V13.0683C42.7539 12.7893 43.0329 12.6033 43.219 12.6033C43.498 12.6033 43.684 12.7893 43.684 13.0683V17.3467C43.684 17.9047 44.149 18.2767 44.7071 18.2767C45.1721 18.2767 45.6372 17.8117 45.6372 17.3467V13.1613Z" fill="white"/>
<path d="M50.566 18.3698C50.8451 18.3698 51.0311 18.6488 51.0311 18.8348C51.0311 19.1138 50.8451 19.2998 50.566 19.2998H47.6828C47.4038 19.2998 47.2178 19.0208 47.2178 18.8348C47.2178 18.5558 47.4038 18.3698 47.6828 18.3698H48.6128V13.6264H47.6828C47.4038 13.6264 47.2178 13.3474 47.2178 13.1613C47.2178 12.8823 47.4038 12.6963 47.6828 12.6963H50.566C50.8451 12.6963 51.0311 12.9753 51.0311 13.1613C51.0311 13.4404 50.8451 13.6264 50.566 13.6264H49.6359V18.3698H50.566Z" fill="white"/>
<path d="M53.6355 12.6033H52.2404C51.9614 12.6033 51.7754 12.7893 51.7754 13.0683V18.7418C51.7754 19.0208 51.9614 19.2068 52.2404 19.2068H53.6355C54.6586 19.2068 55.4956 18.3698 55.4956 17.3467V14.4634C55.4956 13.4403 54.6586 12.6033 53.6355 12.6033ZM53.6355 18.3698H52.7055V13.6264H53.6355C54.1936 13.6264 54.5656 14.0914 54.5656 14.5565V17.4397C54.5656 17.9047 54.1936 18.3698 53.6355 18.3698Z" fill="white"/>
<path d="M59.4947 18.3698C59.7737 18.3698 59.96 18.6488 59.96 18.8348C59.96 19.1138 59.7737 19.2998 59.4947 19.2998H56.6118C56.3328 19.2998 56.1465 19.1138 56.1465 18.8348C56.1465 18.5558 56.3328 18.3698 56.6118 18.3698H57.5419V13.6264H56.6118C56.3328 13.6264 56.1465 13.4404 56.1465 13.1613C56.1465 12.8823 56.3328 12.6963 56.6118 12.6963H59.4947C59.7737 12.6963 59.96 12.9753 59.96 13.1613C59.96 13.4404 59.7737 13.6264 59.4947 13.6264H58.5646V18.3698H59.4947Z" fill="white"/>
<path d="M63.9597 12.6033C64.2387 12.6033 64.4245 12.7893 64.4245 13.0683C64.4245 13.3473 64.2387 13.5334 63.9597 13.5334H63.0296V18.7418C63.0296 19.0208 62.7506 19.2068 62.5643 19.2068C62.2853 19.2068 62.0995 19.0208 62.0995 18.7418V13.5334H61.1694C60.8904 13.5334 60.7041 13.2543 60.7041 13.0683C60.7041 12.7893 60.8904 12.6033 61.1694 12.6033H63.9597Z" fill="white"/>
<path d="M66.5636 16.0446L65.1687 13.3474C64.9829 13.1614 65.0755 12.8824 65.2619 12.6963C65.3545 12.6033 65.4477 12.6033 65.5409 12.6033C65.6335 12.6033 65.8198 12.6033 65.913 12.6963L66.0056 12.7893L67.0289 14.7425L68.0521 12.7893C68.0521 12.6963 68.1448 12.6963 68.1448 12.6963C68.3311 12.5103 68.6101 12.5103 68.7959 12.6033C68.9822 12.7893 68.9822 13.0684 68.8891 13.2544L67.4937 16.0446V18.7418C67.4937 19.0209 67.2147 19.2069 67.0289 19.2069C66.7499 19.2069 66.5636 19.0209 66.5636 18.7418V16.0446Z" fill="white"/>
<path d="M75.0268 18.8348C75.0268 19.1138 74.7478 19.2998 74.5615 19.2998C74.2825 19.2998 74.0967 19.1138 74.0967 18.8348V13.1613C74.0967 12.8823 74.2825 12.6963 74.5615 12.6963C74.6546 12.6963 74.841 12.6963 74.9336 12.7893L75.0268 12.8823L76.9801 16.7886V13.0683C76.9801 12.7893 77.2591 12.6033 77.4449 12.6033C77.7239 12.6033 77.9102 12.7893 77.9102 13.0683V18.7418C77.9102 19.0208 77.7239 19.2068 77.4449 19.2068C77.3517 19.2068 77.1659 19.1138 77.0727 19.0208L76.9801 18.9278L75.0268 15.0214V18.8348Z" fill="white"/>
<path d="M81.9097 12.6033C82.1887 12.6033 82.3745 12.8823 82.3745 13.0683C82.3745 13.3473 82.1887 13.5333 81.9097 13.5333H79.4916V15.3935H81.3512C81.6308 15.3935 81.8166 15.6725 81.8166 15.8586C81.8166 16.1376 81.6308 16.3236 81.3512 16.3236H79.4916V18.1837H81.9097C82.1887 18.1837 82.3745 18.4628 82.3745 18.6488C82.3745 18.9278 82.1887 19.1138 81.9097 19.1138H79.0263C78.7473 19.1138 78.5615 18.9278 78.5615 18.6488V12.9753C78.5615 12.6963 78.7473 12.5103 79.0263 12.5103L81.9097 12.6033Z" fill="white"/>
<path d="M86.3742 12.6033C86.6531 12.6033 86.8395 12.7893 86.8395 13.0683C86.8395 13.3473 86.6531 13.5334 86.3742 13.5334H85.4441V18.7418C85.4441 19.0208 85.2583 19.2068 84.9793 19.2068C84.7003 19.2068 84.514 19.0208 84.514 18.7418V13.5334H83.5839C83.3049 13.5334 83.1191 13.2543 83.1191 13.0683C83.1191 12.7893 83.3049 12.6033 83.5839 12.6033H86.3742Z" fill="white"/>
<path d="M87.8623 13.1613C87.8623 12.8823 88.1418 12.6963 88.3276 12.6963C88.6066 12.6963 88.7924 12.8823 88.7924 13.1613V18.1837C88.7924 18.2768 88.8856 18.4628 89.0714 18.4628C89.1645 18.4628 89.1645 18.4628 89.2577 18.3698C89.2577 18.3698 89.3509 18.2768 89.3509 18.1837V14.6495C89.3509 14.3704 89.6299 14.1844 89.8156 14.1844C90.0946 14.1844 90.281 14.3704 90.281 14.6495V18.1837C90.281 18.2768 90.3736 18.4628 90.4668 18.4628C90.5599 18.4628 90.7457 18.3698 90.7457 18.2768C90.7457 18.2768 90.7457 18.2768 90.7457 18.1837V13.1613C90.7457 12.8823 91.0247 12.6963 91.2111 12.6963C91.49 12.6963 91.6758 12.8823 91.6758 13.1613V18.1837C91.49 19.2068 90.5599 19.9509 89.4435 19.7649C88.6066 19.6719 87.9555 19.0208 87.8623 18.1837V13.1613Z" fill="white"/>
<path d="M94.0008 12.6033C92.9781 12.6033 92.1406 13.5333 92.1406 14.5564V17.5327C92.1406 18.5557 93.0707 19.3928 94.094 19.3928C95.1172 19.2998 95.9541 18.4627 95.9541 17.4396V14.4634C95.9541 13.3473 95.024 12.5102 94.0008 12.6033ZM95.024 17.4396C95.024 17.9047 94.5593 18.3697 94.094 18.3697C93.536 18.3697 93.1639 17.9977 93.0707 17.4396V14.5564C93.0707 13.9984 93.536 13.6263 94.094 13.6263C94.6519 13.6263 95.024 14.0914 95.024 14.6494V17.4396Z" fill="white"/>
<path d="M99.1162 16.3236C99.3951 16.2306 99.5809 16.0445 99.7673 15.8585C100.139 15.4865 100.325 15.0214 100.325 14.4634C100.325 13.4404 99.4883 12.6033 98.3719 12.6033H96.977C96.6981 12.6033 96.5117 12.7893 96.5117 13.0683V18.8348C96.5117 19.1138 96.6981 19.2998 96.977 19.2998C97.256 19.2998 97.4418 19.1138 97.4418 18.8348V16.4166H98.0929L99.3951 19.0208L99.4883 19.1138C99.5809 19.2068 99.6741 19.2998 99.8599 19.2998C99.9531 19.2998 100.046 19.2998 100.139 19.2068C100.232 19.1138 100.325 18.9278 100.325 18.8348C100.325 18.7418 100.325 18.6488 100.232 18.5558L99.1162 16.3236ZM98.4651 15.4865H97.535V13.6264H98.4651C98.9298 13.6264 99.3951 14.0914 99.3951 14.5565C99.3951 15.0214 98.9298 15.4865 98.4651 15.4865Z" fill="white"/>
<path d="M102.465 15.4864L103.767 12.8822C103.767 12.7892 103.86 12.7892 103.86 12.7892C104.046 12.6032 104.325 12.6032 104.511 12.7892C104.697 12.9752 104.697 13.2542 104.511 13.4402L103.209 16.0445L104.511 18.5557C104.697 18.7417 104.604 19.0208 104.418 19.2068C104.325 19.2998 104.232 19.2998 104.139 19.2998C103.953 19.2998 103.767 19.2068 103.674 19.0208L102.372 16.4165H101.721V18.8347C101.721 19.1138 101.535 19.2998 101.256 19.2998C100.977 19.2998 100.791 19.1138 100.791 18.8347V13.1612C100.791 12.8822 101.07 12.6962 101.256 12.6962C101.535 12.6962 101.721 12.8822 101.721 13.1612V15.5794L102.465 15.4864Z" fill="white"/>
<path d="M70.9343 16.7887C71.2939 16.7887 71.5854 16.4972 71.5854 16.1376C71.5854 15.7781 71.2939 15.4866 70.9343 15.4866C70.5748 15.4866 70.2832 15.7781 70.2832 16.1376C70.2832 16.4972 70.5748 16.7887 70.9343 16.7887Z" fill="white"/>
</svg>
