<svg width="202" height="30" viewBox="0 0 202 30" fill="none" xmlns="http://www.w3.org/2000/svg">
<path d="M4.64999 6.59342V28.6722H0.375V3.02367C0.375 0.966827 2.72479 -0.20565 4.36823 1.03111L24.6744 16.3124C25.3005 16.7835 25.6687 17.5215 25.6687 18.3049V28.6722H21.3937V19.1938L4.64999 6.59342Z" fill="white"/>
<path d="M73.5938 4.44727C71.9158 4.44727 70.5557 5.80746 70.5557 7.48539V26.6937H74.5008V10.0519L79.8196 18.7314C80.4252 19.7195 81.5007 20.3219 82.6599 20.3219C83.816 20.3219 84.8897 19.7222 85.496 18.7377L90.8451 10.0519V26.6937H94.7902V7.34428C94.7902 5.7443 93.4935 4.44727 91.8932 4.44727C90.8658 4.44727 89.915 4.99154 89.3948 5.87771L82.7355 17.2221L76.2236 5.96421C75.6807 5.02539 74.6782 4.44727 73.5938 4.44727Z" fill="white"/>
<path fill-rule="evenodd" clip-rule="evenodd" d="M113.011 4.44727C111.707 4.44727 110.536 5.2432 110.056 6.45516L102.037 26.6937H105.857L108.346 20.8699H117.426L119.915 26.6937H123.97L115.967 6.45694C115.487 5.24405 114.315 4.44727 113.011 4.44727ZM112.886 9.00302L116.049 17.2534H109.708L112.886 9.00302Z" fill="white"/>
<path d="M134.646 14.639L144.268 4.97216C144.602 4.63615 145.057 4.44727 145.531 4.44727C147.12 4.44727 147.915 6.37087 146.788 7.49245L139.154 15.093L150.41 26.6937H145.291L134.646 15.9227V26.6937H130.7V6.41985C130.7 5.33041 131.583 4.44727 132.673 4.44727C133.763 4.44727 134.646 5.33041 134.646 6.41985V14.639Z" fill="white"/>
<path d="M157.392 23.1312C157.392 25.0987 158.987 26.6937 160.954 26.6937H171.184C172.187 26.6937 173 25.8806 173 24.8777C173 23.8747 172.187 23.0616 171.184 23.0616H161.352V17.0499H170.323C171.326 17.0499 172.139 16.2368 172.139 15.2339C172.139 14.2309 171.326 13.4178 170.323 13.4178H161.352V8.07933H171.184C172.187 8.07933 173 7.26627 173 6.26328C173 5.26033 172.187 4.44727 171.184 4.44727H160.954C158.987 4.44727 157.392 6.04223 157.392 8.00976V23.1312Z" fill="white"/>
<path fill-rule="evenodd" clip-rule="evenodd" d="M199.221 10.819C199.221 11.5288 199.132 12.2072 198.955 12.8542C198.788 13.4909 198.516 14.1067 198.141 14.7016C197.775 15.2965 197.269 15.8288 196.622 16.2985C195.985 16.7681 195.229 17.1334 194.352 17.3943L201.068 26.6937H195.933L189.703 18.0675H185.929V26.6937H181.984V8.00976C181.984 6.04223 183.579 4.44727 185.547 4.44727H191.456C191.926 4.44727 192.353 4.4629 192.74 4.49422C193.136 4.5151 193.611 4.57772 194.164 4.68207C194.728 4.77601 195.224 4.90647 195.652 5.07348C196.09 5.24045 196.539 5.48573 196.998 5.80928C197.468 6.13282 197.854 6.51376 198.156 6.95213C198.469 7.38005 198.725 7.928 198.923 8.59597C199.122 9.2535 199.221 9.99453 199.221 10.819ZM185.929 8.06366V14.4355H189.561C190.188 14.4355 190.741 14.4146 191.221 14.3728C191.701 14.3311 192.197 14.2476 192.708 14.1224C193.22 13.9867 193.637 13.804 193.961 13.5744C194.295 13.3448 194.566 13.0265 194.775 12.6194C194.994 12.2124 195.104 11.7323 195.104 11.1791C195.104 9.10216 193.502 8.06366 190.297 8.06366H185.929Z" fill="white"/>
<path d="M49.8937 28.6722V6.59342L33.15 19.1938V28.6722H28.875V18.3049C28.875 17.5215 29.2432 16.7835 29.8693 16.3124L50.1755 1.03111C51.8189 -0.20565 54.1687 0.966827 54.1687 3.02367V28.6722H49.8937Z" fill="white"/>
</svg>
